<?xml version="1.0" encoding="utf-8"?>
<!-- Generator: Adobe Illustrator 15.0.0, SVG Export Plug-In . SVG Version: 6.00 Build 0)  -->
<!DOCTYPE svg PUBLIC "-//W3C//DTD SVG 1.1//EN" "http://www.w3.org/Graphics/SVG/1.1/DTD/svg11.dtd">
<svg version="1.1" id="Layer_1" xmlns="http://www.w3.org/2000/svg" xmlns:xlink="http://www.w3.org/1999/xlink" x="0px" y="0px"
	 width="294" height="22px" viewBox="0 0 294 22" enable-background="new 0 0 294 22"
	 xml:space="preserve">
<g>
	<path d="M205.924,11.428v10.198h-2.571v-9.563l-8.019-11.62h2.904l6.234,9.139c0.484,0.666,0.695,0.969,0.878,1.393
		c0.302-0.575,0.694-0.999,1.271-1.786l6.174-8.745h0.998L205.924,11.428z"/>
	<path d="M239.466,18.055c0.394,0.514,0.726,1.089,1.028,1.725V0.442h0.848v21.184h-2.18L224.185,3.317
		c-0.364-0.393-0.728-0.847-1.06-1.271v19.579h-0.848V1.229l-0.271-0.787h2.904L239.466,18.055z"/>
	<path d="M268.555,18.055c0.394,0.514,0.727,1.089,1.028,1.725V0.442h0.847v21.184h-2.178L253.273,3.317
		c-0.363-0.393-0.727-0.847-1.06-1.271v19.579h-0.847V1.229l-0.273-0.787h2.905L268.555,18.055z"/>
	<polygon points="283.004,10.882 283.004,20.959 294.141,20.959 294.141,21.625 280.463,21.625 280.463,0.443 294.141,0.443 
		294.141,1.078 283.004,1.078 283.004,10.247 292.324,10.247 292.324,10.882 	"/>
	<path d="M187.648,0.442l-7.352,17.294c-0.328,0.744-0.447,1.161-0.596,1.607c-0.03-0.357-0.059-0.774-0.387-1.577L172.26,0.442
		h-2.738l3.324,7.819l-4.029,9.475c-0.327,0.744-0.446,1.161-0.596,1.607c-0.029-0.357-0.059-0.774-0.387-1.577l-7.055-17.324
		h-2.738l9.02,21.224h0.773l5.405-12.474l5.301,12.474h0.774l9.197-21.224H187.648z"/>
	<path d="M12.528,16.17c0,3.691-2.028,5.81-6.778,5.81c-3.117,0-4.842-1.271-5.75-2.845l2.209-0.969
		c0.453,1.938,1.361,3.238,3.692,3.238c3.116,0,4.085-1.876,4.085-4.872V0.403h2.542V16.17z"/>
	<polygon points="25.105,10.843 25.105,20.92 36.24,20.92 36.24,21.586 22.562,21.586 22.562,0.404 36.24,0.404 36.24,1.039 
		25.105,1.039 25.105,10.208 34.425,10.208 34.425,10.843 	"/>
	<path d="M128.729,15.836h-11.953l-2.633,5.751h-0.877l10.047-21.576h0.877l9.896,21.576h-2.784L128.729,15.836z M122.102,4.246
		l-5.023,10.925h11.348l-4.781-10.773c-0.453-0.998-0.605-1.27-0.787-1.997C122.585,3.128,122.524,3.399,122.102,4.246"/>
	<polygon points="70.145,0.403 70.154,0.392 68.881,0.403 58.447,15.093 46.082,0.403 45.066,0.403 45.066,21.586 46.082,21.586 
		46.082,4.472 57.539,18.048 67.434,4.197 67.434,21.586 70.166,21.586 70.166,0.403 	"/>
	<polygon points="105.275,0.403 105.285,0.392 104.012,0.403 93.578,15.093 81.213,0.403 80.197,0.403 80.197,21.586 81.213,21.586 
		81.213,4.472 92.67,18.048 102.564,4.197 102.564,21.586 105.298,21.586 105.298,0.403 	"/>
</g>
</svg>
