<?xml version="1.0" encoding="utf-8"?>
<!-- Generator: Adobe Illustrator 15.0.0, SVG Export Plug-In . SVG Version: 6.00 Build 0)  -->
<!DOCTYPE svg PUBLIC "-//W3C//DTD SVG 1.1//EN" "http://www.w3.org/Graphics/SVG/1.1/DTD/svg11.dtd">
<svg version="1.1" id="Layer_1" xmlns="http://www.w3.org/2000/svg" xmlns:xlink="http://www.w3.org/1999/xlink" x="0px" y="0px"
	 width="997.201px" height="74.504px" viewBox="0 0 997.201 74.504" enable-background="new 0 0 997.201 74.504"
	 xml:space="preserve">
<g>
	<path fill="#FFFFFF" d="M698.129,38.731v34.572h-8.719v-32.42L662.223,1.489h9.848l21.137,30.979
		c1.641,2.259,2.359,3.284,2.975,4.724c1.025-1.951,2.359-3.387,4.309-6.057l20.93-29.646h3.385L698.129,38.731z"/>
	<path fill="#FFFFFF" d="M811.842,61.198c1.334,1.742,2.461,3.691,3.488,5.848V1.488h2.873v71.815h-7.391l-50.779-62.067
		c-1.232-1.333-2.463-2.872-3.59-4.311v66.377h-2.873V4.158l-0.922-2.67h9.846L811.842,61.198z"/>
	<path fill="#FFFFFF" d="M910.461,61.198c1.334,1.742,2.461,3.691,3.488,5.848V1.488h2.869v71.815h-7.385l-50.779-62.067
		c-1.232-1.333-2.465-2.872-3.592-4.311v66.377h-2.873V4.158l-0.924-2.67h9.85L910.461,61.198z"/>
	<polygon fill="#FFFFFF" points="959.447,36.881 959.447,71.045 997.201,71.045 997.201,73.303 950.828,73.303 950.828,1.489 
		997.201,1.489 997.201,3.642 959.447,3.642 959.447,34.728 991.045,34.728 991.045,36.881 	"/>
	<path fill="#FFFFFF" d="M636.17,1.489l-24.924,58.63c-1.109,2.521-1.516,3.936-2.02,5.449c-0.102-1.211-0.201-2.625-1.311-5.348
		L583.998,1.489h-9.283l11.268,26.508L572.324,60.12c-1.109,2.521-1.512,3.936-2.016,5.449c-0.104-1.211-0.203-2.625-1.314-5.348
		L545.078,1.489h-9.283l30.576,71.951h2.623l18.326-42.286l17.971,42.286h2.625l31.182-71.951H636.17z"/>
	<path fill="#FFFFFF" d="M42.474,54.807c0,12.518-6.876,19.697-22.982,19.697C8.926,74.504,3.078,70.194,0,64.86l7.489-3.283
		c1.539,6.564,4.617,10.977,12.517,10.977c10.566,0,13.85-6.361,13.85-16.516V1.356h8.618V54.807z"/>
	<polygon fill="#FFFFFF" points="85.111,36.749 85.111,70.911 122.864,70.911 122.864,73.17 76.492,73.17 76.492,1.356 
		122.864,1.356 122.864,3.512 85.111,3.512 85.111,34.596 116.709,34.596 116.709,36.749 	"/>
	<path fill="#FFFFFF" d="M436.418,53.674h-40.522L386.97,73.17h-2.975l34.059-73.146h2.977l33.547,73.146h-9.439L436.418,53.674z
		 M413.951,14.385L396.922,51.42h38.468l-16.207-36.521c-1.539-3.387-2.053-4.309-2.668-6.773
		C415.592,10.591,415.385,11.513,413.951,14.385"/>
	<polygon fill="#FFFFFF" points="237.806,1.356 237.836,1.315 233.522,1.356 198.15,51.155 156.229,1.356 152.787,1.356 
		152.787,73.17 156.229,73.17 156.229,15.148 195.067,61.172 228.616,14.219 228.616,73.17 237.879,73.17 237.879,1.356 	"/>
	<polygon fill="#FFFFFF" points="356.908,1.356 356.939,1.315 352.625,1.356 317.252,51.155 275.33,1.356 271.889,1.356 
		271.889,73.17 275.33,73.17 275.33,15.148 314.169,61.172 347.718,14.219 347.718,73.17 356.982,73.17 356.982,1.356 	"/>
</g>
</svg>
