<?xml version="1.0" encoding="utf-8"?>
<!-- Generator: Adobe Illustrator 15.0.0, SVG Export Plug-In . SVG Version: 6.00 Build 0)  -->
<!DOCTYPE svg PUBLIC "-//W3C//DTD SVG 1.1//EN" "http://www.w3.org/Graphics/SVG/1.1/DTD/svg11.dtd">
<svg version="1.1" id="Layer_1" xmlns="http://www.w3.org/2000/svg" xmlns:xlink="http://www.w3.org/1999/xlink" x="0px" y="0px"
	 width="30.79px" height="30.821px" viewBox="0 0 30.79 30.821" enable-background="new 0 0 30.79 30.821" xml:space="preserve">
<g>
	<path fill="#FFFFFF" d="M22.765,18.592L30.79,0h-0.879l-7.615,17.521L17.53,7.308L20.684,0H10.106l5.135,10.499l-3.051,7.021
		L4.014,0H0l10.565,21.598c-0.01,0.023-0.02,0.047-0.029,0.069c-0.288,0.75-0.446,1.564-0.446,2.416c0,3.72,3.017,6.738,6.738,6.738
		c1.705,0,3.262-0.635,4.449-1.682l0.002,0.001c1.557-1.418,2.805-3.688,2.834-5.865c0.016-1.063-0.176-2.033-0.627-3.08
		C23.487,20.195,23.206,19.571,22.765,18.592 M14.454,0.715l5.039,0.004l-2.43,5.589L14.454,0.715z M20.577,28.768l0.002,0.003
		c-1.027,0.824-2.332,1.319-3.75,1.319c-3.313,0-6.008-2.694-6.008-6.007c0-0.743,0.134-1.468,0.398-2.154
		c0.042-0.108,0.087-0.216,0.135-0.32h0.002l4.371-10.12l4.834,9.842c0.392,0.816,0.739,1.496,0.843,1.775
		C21.681,23.855,22.784,26.906,20.577,28.768"/>
</g>
</svg>
