<?xml version="1.0" encoding="utf-8"?>
<!-- Generator: Adobe Illustrator 15.0.0, SVG Export Plug-In . SVG Version: 6.00 Build 0)  -->
<!DOCTYPE svg PUBLIC "-//W3C//DTD SVG 1.1//EN" "http://www.w3.org/Graphics/SVG/1.1/DTD/svg11.dtd">
<svg version="1.1" id="Layer_1" xmlns="http://www.w3.org/2000/svg" xmlns:xlink="http://www.w3.org/1999/xlink" x="0px" y="0px"
	 width="41px" height="41px" viewBox="0 0 41 41" enable-background="new 0 0 41 41" xml:space="preserve">
<g>
	<path d="M30.283,24.732L40.959,0H39.79L29.657,23.306L23.319,9.722L27.516,0H13.443l6.832,13.966l-4.06,9.34L5.339,0H0
		l14.054,28.73c-0.013,0.031-0.027,0.062-0.039,0.092c-0.383,0.998-0.593,2.08-0.593,3.213c0,4.951,4.013,8.965,8.963,8.965
		c2.27,0,4.34-0.846,5.918-2.236l0.004,0.002c2.07-1.887,3.731-4.908,3.771-7.803c0.02-1.414-0.234-2.705-0.835-4.1
		C31.243,26.863,30.869,26.035,30.283,24.732 M19.227,0.95l6.705,0.005l-3.233,7.437L19.227,0.95z M27.371,38.269l0.004,0.002
		c-1.367,1.098-3.104,1.756-4.99,1.756c-4.407,0-7.991-3.584-7.991-7.992c0-0.986,0.178-1.951,0.529-2.863
		c0.055-0.145,0.115-0.287,0.179-0.428h0.003l5.814-13.462l6.431,13.091c0.521,1.088,0.983,1.99,1.121,2.363
		C28.842,31.732,30.309,35.792,27.371,38.269"/>
</g>
</svg>
