<?xml version="1.0" encoding="utf-8"?>
<!-- Generator: Adobe Illustrator 19.2.1, SVG Export Plug-In . SVG Version: 6.00 Build 0)  -->
<svg version="1.1" id="Layer_1" xmlns="http://www.w3.org/2000/svg" xmlns:xlink="http://www.w3.org/1999/xlink" x="0px" y="0px"
	 width="500px" height="33px" viewBox="0 0 500 33" style="enable-background:new 0 0 500 33;" xml:space="preserve">
<style type="text/css">
	.st0{fill:#FFFFFF;}
</style>
<g>
	<path class="st0" d="M350,17.1v15.3h-4.4V18.1L332,0.6h4.9l10.6,13.7c0.8,1,1.2,1.5,1.5,2.1c0.5-0.9,1.2-1.5,2.2-2.7l10.5-13.1h1.7
		L350,17.1z"/>
	<path class="st0" d="M407.1,27.1c0.7,0.8,1.2,1.6,1.7,2.6v-29h1.4v31.8h-3.7L381.1,5c-0.6-0.6-1.2-1.3-1.8-1.9v29.4h-1.4V1.8
		l-0.5-1.2h4.9L407.1,27.1z"/>
	<path class="st0" d="M456.5,27.1c0.7,0.8,1.2,1.6,1.7,2.6v-29h1.4v31.8H456L430.5,5c-0.6-0.6-1.2-1.3-1.8-1.9v29.4h-1.4V1.8
		l-0.5-1.2h4.9L456.5,27.1z"/>
</g>
<polygon class="st0" points="476.7,0.6 476.7,32.5 500,32.5 500,31.5 481.1,31.5 481.1,16.3 496.9,16.3 496.9,15.4 481.1,15.4 
	481.1,1.6 500,1.6 500,0.6 "/>
<g>
	<path class="st0" d="M319,0.6l-12.5,26c-0.6,1.1-0.8,1.7-1,2.4c-0.1-0.5-0.1-1.2-0.7-2.4l-12-26h-4.7l5.6,11.7L287,26.6
		c-0.6,1.1-0.8,1.7-1,2.4c-0.1-0.5-0.1-1.2-0.7-2.4l-12-26h-4.7L284,32.5h1.3l9.2-18.7l9,18.7h1.3l15.6-31.9H319z"/>
	<path class="st0" d="M21.3,24.3c0,5.5-3.4,8.7-11.5,8.7c-5.3,0-8.2-1.9-9.8-4.3l3.8-1.5c0.8,2.9,2.3,4.9,6.3,4.9
		c5.3,0,6.9-2.8,6.9-7.3V0.6h4.3V24.3z"/>
</g>
<polygon class="st0" points="38.4,0.6 38.4,32.4 61.6,32.4 61.6,31.4 42.7,31.4 42.7,16.3 58.5,16.3 58.5,15.3 42.7,15.3 42.7,1.5 
	61.6,1.5 61.6,0.6 "/>
<g>
	<path class="st0" d="M207.6,6.4L199,22.8h19.3l-8.1-16.2c-0.8-1.5-1-1.9-1.3-3C208.4,4.7,208.3,5.1,207.6,6.4 M218.8,23.8h-20.3
		l-4.5,8.6h-1.5L209.6,0h1.5l16.8,32.4h-4.7L218.8,23.8z"/>
</g>
<polygon class="st0" points="117.1,0.6 99.4,22.7 78.3,0.6 76.6,0.6 76.6,32.4 78.3,32.4 78.3,6.7 97.8,27.1 114.6,6.3 114.6,32.4 
	119.3,32.4 119.3,0.6 119.2,0.6 119.3,0.6 "/>
<polygon class="st0" points="176.8,0.6 159.1,22.7 138.1,0.6 136.3,0.6 136.3,32.4 138.1,32.4 138.1,6.7 157.5,27.1 174.3,6.3 
	174.3,32.4 179,32.4 179,0.6 179,0.6 179,0.6 "/>
</svg>
