<svg xmlns="http://www.w3.org/2000/svg" width="294" height="22"><path d="M205.924 11.428v10.198h-2.571v-9.563L195.334.443h2.904l6.234 9.139c.484.666.695.969.878 1.393.302-.575.694-.999 1.271-1.786l6.174-8.745h.998l-7.869 10.984zm33.542 6.627a9.522 9.522 0 011.028 1.725V.442h.848v21.184h-2.18L224.185 3.317a20.558 20.558 0 01-1.06-1.271v19.579h-.848V1.229l-.271-.787h2.904l14.556 17.613zm29.089 0a9.465 9.465 0 011.028 1.725V.442h.847v21.184h-2.178L253.273 3.317a21.293 21.293 0 01-1.06-1.271v19.579h-.847V1.229l-.273-.787h2.905l14.557 17.613zm14.449-7.173v10.077h11.137v.666h-13.678V.443h13.678v.635h-11.137v9.169h9.32v.635zM187.648.442l-7.352 17.294c-.328.744-.447 1.161-.596 1.607-.03-.357-.059-.774-.387-1.577L172.26.442h-2.738l3.324 7.819-4.029 9.475c-.327.744-.446 1.161-.596 1.607-.029-.357-.059-.774-.387-1.577L160.779.442h-2.738l9.02 21.224h.773l5.405-12.474 5.301 12.474h.774L188.511.442h-.863zM12.528 16.17c0 3.691-2.028 5.81-6.778 5.81-3.117 0-4.842-1.271-5.75-2.845l2.209-.969c.453 1.938 1.361 3.238 3.692 3.238 3.116 0 4.085-1.876 4.085-4.872V.403h2.542V16.17zm12.577-5.327V20.92H36.24v.666H22.562V.404H36.24v.635H25.105v9.169h9.32v.635zm103.624 4.993h-11.953l-2.633 5.751h-.877L123.313.011h.877l9.896 21.576h-2.784l-2.573-5.751zm-6.627-11.59l-5.023 10.925h11.348l-4.781-10.773c-.453-.998-.605-1.27-.787-1.997-.274.727-.335.998-.757 1.845M70.145.403l.009-.011-1.273.011-10.434 14.69L46.082.403h-1.016v21.183h1.016V4.472l11.457 13.576 9.895-13.851v17.389h2.732V.403zm35.13 0l.01-.011-1.273.011-10.434 14.69L81.213.403h-1.016v21.183h1.016V4.472L92.67 18.048l9.894-13.851v17.389h2.734V.403z"/></svg>