<?xml version="1.0" encoding="UTF-8"?>
<svg viewBox="0 0 998 75" version="1.1" xmlns="http://www.w3.org/2000/svg" xmlns:xlink="http://www.w3.org/1999/xlink">
    <!-- Generator: Sketch 59.1 (86144) - https://sketch.com -->
    <title>Logo_Large_Black</title>
    <desc>Created with Sketch.</desc>
    <g id="Page-1" stroke="none" stroke-width="1" fill="none" fill-rule="evenodd">
        <g id="Logo_Large_Black" fill="#000000" fill-rule="nonzero">
            <path d="M698.129,38.731 L698.129,73.303 L689.41,73.303 L689.41,40.883 L662.223,1.489 L672.071,1.489 L693.208,32.468 C694.849,34.727 695.567,35.752 696.183,37.192 C697.208,35.241 698.542,33.805 700.492,31.135 L721.422,1.489 L724.807,1.489 L698.129,38.731 Z" id="Path"></path>
            <path d="M811.842,61.198 C813.176,62.94 814.303,64.889 815.33,67.046 L815.33,1.488 L818.203,1.488 L818.203,73.303 L810.812,73.303 L760.033,11.236 C758.801,9.903 757.57,8.364 756.443,6.925 L756.443,73.302 L753.57,73.302 L753.57,4.158 L752.648,1.488 L762.494,1.488 L811.842,61.198 Z" id="Path"></path>
            <path d="M910.461,61.198 C911.795,62.94 912.922,64.889 913.949,67.046 L913.949,1.488 L916.818,1.488 L916.818,73.303 L909.433,73.303 L858.654,11.236 C857.422,9.903 856.189,8.364 855.062,6.925 L855.062,73.302 L852.189,73.302 L852.189,4.158 L851.265,1.488 L861.115,1.488 L910.461,61.198 Z" id="Path"></path>
            <polygon id="Path" points="959.447 36.881 959.447 71.045 997.201 71.045 997.201 73.303 950.828 73.303 950.828 1.489 997.201 1.489 997.201 3.642 959.447 3.642 959.447 34.728 991.045 34.728 991.045 36.881"></polygon>
            <path d="M636.17,1.489 L611.246,60.119 C610.137,62.64 609.73,64.055 609.226,65.568 C609.124,64.357 609.025,62.943 607.915,60.22 L583.998,1.489 L574.715,1.489 L585.983,27.997 L572.324,60.12 C571.215,62.641 570.812,64.056 570.308,65.569 C570.204,64.358 570.105,62.944 568.994,60.221 L545.078,1.489 L535.795,1.489 L566.371,73.44 L568.994,73.44 L587.32,31.154 L605.291,73.44 L607.916,73.44 L639.098,1.489 L636.17,1.489 Z" id="Path"></path>
            <path d="M42.474,54.807 C42.474,67.325 35.598,74.504 19.492,74.504 C8.926,74.504 3.078,70.194 0,64.86 L7.489,61.577 C9.028,68.141 12.106,72.554 20.006,72.554 C30.572,72.554 33.856,66.193 33.856,56.038 L33.856,1.356 L42.474,1.356 L42.474,54.807 L42.474,54.807 Z" id="Path"></path>
            <polygon id="Path" points="85.111 36.749 85.111 70.911 122.864 70.911 122.864 73.17 76.492 73.17 76.492 1.356 122.864 1.356 122.864 3.512 85.111 3.512 85.111 34.596 116.709 34.596 116.709 36.749"></polygon>
            <path d="M436.418,53.674 L395.896,53.674 L386.97,73.17 L383.995,73.17 L418.054,0.024 L421.031,0.024 L454.578,73.17 L445.139,73.17 L436.418,53.674 Z M413.951,14.385 L396.922,51.42 L435.39,51.42 L419.183,14.899 C417.644,11.512 417.13,10.59 416.515,8.126 C415.592,10.591 415.385,11.513 413.951,14.385" id="Shape"></path>
            <polygon id="Path" points="237.806 1.356 237.836 1.315 233.522 1.356 198.15 51.155 156.229 1.356 152.787 1.356 152.787 73.17 156.229 73.17 156.229 15.148 195.067 61.172 228.616 14.219 228.616 73.17 237.879 73.17 237.879 1.356"></polygon>
            <polygon id="Path" points="356.908 1.356 356.939 1.315 352.625 1.356 317.252 51.155 275.33 1.356 271.889 1.356 271.889 73.17 275.33 73.17 275.33 15.148 314.169 61.172 347.718 14.219 347.718 73.17 356.982 73.17 356.982 1.356"></polygon>
        </g>
    </g>
</svg>
