<svg xmlns="http://www.w3.org/2000/svg" width="997.201" height="74.504"><path d="M698.129 38.731v34.572h-8.719v-32.42L662.223 1.489h9.848l21.137 30.979c1.641 2.259 2.359 3.284 2.975 4.724 1.025-1.951 2.359-3.387 4.309-6.057l20.93-29.646h3.385l-26.678 37.242zm113.713 22.467c1.334 1.742 2.461 3.691 3.488 5.848V1.488h2.873v71.815h-7.391l-50.779-62.067c-1.232-1.333-2.463-2.872-3.59-4.311v66.377h-2.873V4.158l-.922-2.67h9.846l49.348 59.71zm98.619 0c1.334 1.742 2.461 3.691 3.488 5.848V1.488h2.869v71.815h-7.385l-50.779-62.067c-1.232-1.333-2.465-2.872-3.592-4.311v66.377h-2.873V4.158l-.924-2.67h9.85l49.346 59.71zm48.986-24.317v34.164h37.754v2.258h-46.373V1.489h46.373v2.153h-37.754v31.086h31.598v2.153zM636.17 1.489l-24.924 58.63c-1.109 2.521-1.516 3.936-2.02 5.449-.102-1.211-.201-2.625-1.311-5.348L583.998 1.489h-9.283l11.268 26.508-13.659 32.123c-1.109 2.521-1.512 3.936-2.016 5.449-.104-1.211-.203-2.625-1.314-5.348L545.078 1.489h-9.283l30.576 71.951h2.623l18.326-42.286 17.971 42.286h2.625l31.182-71.951h-2.928zM42.474 54.807c0 12.518-6.876 19.697-22.982 19.697-10.566 0-16.414-4.31-19.492-9.644l7.489-3.283c1.539 6.564 4.617 10.977 12.517 10.977 10.566 0 13.85-6.361 13.85-16.516V1.356h8.618v53.451zm42.637-18.058v34.162h37.753v2.259H76.492V1.356h46.372v2.156H85.111v31.084h31.598v2.153zm351.307 16.925h-40.522L386.97 73.17h-2.975L418.054.024h2.977l33.547 73.146h-9.439l-8.721-19.496zm-22.467-39.289L396.922 51.42h38.468l-16.207-36.521c-1.539-3.387-2.053-4.309-2.668-6.773-.923 2.465-1.13 3.387-2.564 6.259M237.806 1.356l.03-.041-4.314.041-35.372 49.799-41.921-49.799h-3.442V73.17h3.442V15.148l38.838 46.024 33.549-46.953V73.17h9.263V1.356zm119.102 0l.031-.041-4.314.041-35.373 49.799L275.33 1.356h-3.441V73.17h3.441V15.148l38.839 46.024 33.549-46.953V73.17h9.264V1.356z" fill="#FFF"/></svg>