<svg xmlns="http://www.w3.org/2000/svg" width="30.79" height="30.821"><path fill="#FFF" d="M22.765 18.592L30.79 0h-.879l-7.615 17.521L17.53 7.308 20.684 0H10.106l5.135 10.499-3.051 7.021L4.014 0H0l10.565 21.598-.029.069a6.739 6.739 0 006.292 9.154 6.703 6.703 0 004.449-1.682l.002.001c1.557-1.418 2.805-3.688 2.834-5.865.016-1.063-.176-2.033-.627-3.08l-.721-1.603M14.454.715l5.039.004-2.43 5.589L14.454.715zm6.123 28.053l.002.003a5.975 5.975 0 01-3.75 1.319 6.014 6.014 0 01-5.61-8.161c.042-.108.087-.216.135-.32h.002l4.371-10.12 4.834 9.842c.392.816.739 1.496.843 1.775.277.749 1.38 3.8-.827 5.662"/></svg>