<svg xmlns="http://www.w3.org/2000/svg" width="41" height="41"><path d="M30.283 24.732L40.959 0H39.79L29.657 23.306 23.319 9.722 27.516 0H13.443l6.832 13.966-4.06 9.34L5.339 0H0l14.054 28.73-.039.092a8.944 8.944 0 00-.593 3.213c0 4.951 4.013 8.965 8.963 8.965 2.27 0 4.34-.846 5.918-2.236l.004.002c2.07-1.887 3.731-4.908 3.771-7.803.02-1.414-.234-2.705-.835-4.1l-.96-2.131M19.227.95l6.705.005-3.233 7.437L19.227.95zm8.144 37.319l.004.002a7.946 7.946 0 01-4.99 1.756c-4.407 0-7.991-3.584-7.991-7.992a7.946 7.946 0 01.708-3.291h.003l5.814-13.462 6.431 13.091c.521 1.088.983 1.99 1.121 2.363.371.996 1.838 5.056-1.1 7.533"/></svg>