<svg xmlns="http://www.w3.org/2000/svg" width="500" height="33"><path d="M350 17.1v15.3h-4.4V18.1L332 .6h4.9l10.6 13.7c.8 1 1.2 1.5 1.5 2.1.5-.9 1.2-1.5 2.2-2.7L361.7.6h1.7L350 17.1zm57.1 10c.7.8 1.2 1.6 1.7 2.6V.7h1.4v31.8h-3.7L381.1 5c-.6-.6-1.2-1.3-1.8-1.9v29.4h-1.4V1.8l-.5-1.2h4.9l24.8 26.5zm49.4 0c.7.8 1.2 1.6 1.7 2.6V.7h1.4v31.8H456L430.5 5c-.6-.6-1.2-1.3-1.8-1.9v29.4h-1.4V1.8l-.5-1.2h4.9l24.8 26.5zM476.7.6v31.9H500v-1h-18.9V16.3h15.8v-.9h-15.8V1.6H500v-1zM319 .6l-12.5 26c-.6 1.1-.8 1.7-1 2.4-.1-.5-.1-1.2-.7-2.4l-12-26h-4.7l5.6 11.7-6.7 14.3c-.6 1.1-.8 1.7-1 2.4-.1-.5-.1-1.2-.7-2.4l-12-26h-4.7L284 32.5h1.3l9.2-18.7 9 18.7h1.3L320.4.6H319zM21.3 24.3c0 5.5-3.4 8.7-11.5 8.7-5.3 0-8.2-1.9-9.8-4.3l3.8-1.5c.8 2.9 2.3 4.9 6.3 4.9 5.3 0 6.9-2.8 6.9-7.3V.6h4.3v23.7zM38.4.6v31.8h23.2v-1H42.7V16.3h15.8v-1H42.7V1.5h18.9V.6zm169.2 5.8L199 22.8h19.3l-8.1-16.2c-.8-1.5-1-1.9-1.3-3-.5 1.1-.6 1.5-1.3 2.8m11.2 17.4h-20.3l-4.5 8.6h-1.5L209.6 0h1.5l16.8 32.4h-4.7l-4.4-8.6zM117.1.6L99.4 22.7 78.3.6h-1.7v31.8h1.7V6.7l19.5 20.4 16.8-20.8v26.1h4.7V.6h-.1.1zm59.7 0l-17.7 22.1-21-22.1h-1.8v31.8h1.8V6.7l19.4 20.4 16.8-20.8v26.1h4.7V.6z" fill="#fff"/></svg>